<svg xmlns="http://www.w3.org/2000/svg" width="70.644" height="18.76" viewBox="0 0 70.644 18.76">
  <path id="Path_1" data-name="Path 1" d="M7.42.28A5.826,5.826,0,0,1,4.088-.644a5.964,5.964,0,0,1-2.1-2.492A8.078,8.078,0,0,1,1.26-6.58a8.051,8.051,0,0,1,.728-3.458,5.982,5.982,0,0,1,2.1-2.478A5.826,5.826,0,0,1,7.42-13.44a5.826,5.826,0,0,1,3.332.924,5.982,5.982,0,0,1,2.1,2.478A8.051,8.051,0,0,1,13.58-6.58a8.078,8.078,0,0,1-.728,3.444,5.964,5.964,0,0,1-2.1,2.492A5.826,5.826,0,0,1,7.42.28Zm0-1.12a2.551,2.551,0,0,0,1.848-.77,5.11,5.11,0,0,0,1.218-2.072,9.127,9.127,0,0,0,.434-2.9,9.093,9.093,0,0,0-.434-2.912A5.116,5.116,0,0,0,9.268-11.55a2.551,2.551,0,0,0-1.848-.77,2.566,2.566,0,0,0-1.834.77A5.032,5.032,0,0,0,4.354-9.492,9.093,9.093,0,0,0,3.92-6.58a9.127,9.127,0,0,0,.434,2.9A5.026,5.026,0,0,0,5.586-1.61,2.566,2.566,0,0,0,7.42-.84ZM21.252.28a10.566,10.566,0,0,1-2.744-.294,3.564,3.564,0,0,1-1.6-.826,2.033,2.033,0,0,1-.616-1.2,14.516,14.516,0,0,1-.084-1.736h.56a3.387,3.387,0,0,0,1.176,2.156,4.217,4.217,0,0,0,2.744.784A3.9,3.9,0,0,0,23.03-1.4a1.693,1.693,0,0,0,.742-1.4,1.838,1.838,0,0,0-.63-1.414,6.714,6.714,0,0,0-1.89-1.106l-1.68-.7a7.361,7.361,0,0,1-2.478-1.526A3.052,3.052,0,0,1,16.212-9.8a3.115,3.115,0,0,1,1.316-2.7,5.551,5.551,0,0,1,3.3-.938,9.845,9.845,0,0,1,2.632.294,3.551,3.551,0,0,1,1.568.826,2.033,2.033,0,0,1,.616,1.2,14.517,14.517,0,0,1,.084,1.736h-.56a3.414,3.414,0,0,0-1.162-2.156,3.966,3.966,0,0,0-2.618-.784,3.327,3.327,0,0,0-2.086.56,1.713,1.713,0,0,0-.714,1.4,1.867,1.867,0,0,0,.588,1.33,4.988,4.988,0,0,0,1.652,1.05l1.68.7a8.823,8.823,0,0,1,2.716,1.6,3.037,3.037,0,0,1,.924,2.324,3.055,3.055,0,0,1-1.4,2.7A6.153,6.153,0,0,1,21.252.28ZM33.74.28A10.566,10.566,0,0,1,31-.014,3.564,3.564,0,0,1,29.4-.84a2.033,2.033,0,0,1-.616-1.2A14.516,14.516,0,0,1,28.7-3.78h.56a3.387,3.387,0,0,0,1.176,2.156A4.217,4.217,0,0,0,33.18-.84a3.9,3.9,0,0,0,2.338-.56,1.692,1.692,0,0,0,.742-1.4,1.838,1.838,0,0,0-.63-1.414A6.714,6.714,0,0,0,33.74-5.32l-1.68-.7a7.361,7.361,0,0,1-2.478-1.526A3.052,3.052,0,0,1,28.7-9.8a3.115,3.115,0,0,1,1.316-2.7,5.551,5.551,0,0,1,3.3-.938,9.845,9.845,0,0,1,2.632.294,3.551,3.551,0,0,1,1.568.826,2.033,2.033,0,0,1,.616,1.2A14.516,14.516,0,0,1,38.22-9.38h-.56A3.414,3.414,0,0,0,36.5-11.536a3.966,3.966,0,0,0-2.618-.784,3.327,3.327,0,0,0-2.086.56,1.713,1.713,0,0,0-.714,1.4,1.867,1.867,0,0,0,.588,1.33A4.988,4.988,0,0,0,33.32-7.98l1.68.7a8.823,8.823,0,0,1,2.716,1.6A3.037,3.037,0,0,1,38.64-3.36a3.055,3.055,0,0,1-1.4,2.7A6.153,6.153,0,0,1,33.74.28Zm11.228,0A4.989,4.989,0,0,1,43.694.1a4.221,4.221,0,0,1-1.33-.63,3.388,3.388,0,0,1-1.05-1.2,4,4,0,0,1-.406-1.9A2.944,2.944,0,0,1,41.9-6.02a5.925,5.925,0,0,1,2.632-1.19,16.8,16.8,0,0,1,3.514-.35h.84a8.73,8.73,0,0,0-.392-2.982,2.606,2.606,0,0,0-1.05-1.4,2.953,2.953,0,0,0-1.5-.378,3.628,3.628,0,0,0-1.974.5A2.823,2.823,0,0,0,42.868-9.94h-1.26a10.3,10.3,0,0,1,.084-1.358,2.009,2.009,0,0,1,.616-1.162,3.271,3.271,0,0,1,1.736-.756,13.443,13.443,0,0,1,2.464-.224,7.422,7.422,0,0,1,1.834.224,3.742,3.742,0,0,1,1.568.826A4.081,4.081,0,0,1,51-10.626a9.515,9.515,0,0,1,.406,3.066V0h-1.4l-.98-1.26h-.14A4.293,4.293,0,0,1,47.516-.224,5.468,5.468,0,0,1,44.968.28Zm1.26-1.26A2.428,2.428,0,0,0,47.866-1.5,5.473,5.473,0,0,0,48.888-2.66V-6.44h-.84a6.021,6.021,0,0,0-3.29.77,2.329,2.329,0,0,0-1.19,2.03,2.417,2.417,0,0,0,.812,2.016A2.894,2.894,0,0,0,46.228-.98ZM55.72,0V-9.8a4.958,4.958,0,0,0-.35-2.03q-.35-.77-1.61-.77H53.2v-.56h2.52a3.728,3.728,0,0,1,1.526.252,1.481,1.481,0,0,1,.77.98A7.671,7.671,0,0,1,58.24-9.8V0Zm1.064-14.84a1.418,1.418,0,0,1-1.106-.532,1.859,1.859,0,0,1-.462-1.26,1.22,1.22,0,0,1,.35-.924,1.3,1.3,0,0,1,.938-.336,1.418,1.418,0,0,1,1.106.532,1.859,1.859,0,0,1,.462,1.26,1.22,1.22,0,0,1-.35.924A1.3,1.3,0,0,1,56.784-14.84ZM62.3,0V-15.12a4.958,4.958,0,0,0-.35-2.03q-.35-.77-1.61-.77h-.56v-.56H62.3a3.728,3.728,0,0,1,1.526.252,1.481,1.481,0,0,1,.77.98,7.671,7.671,0,0,1,.224,2.128V0Zm7.084,0V-9.8a4.958,4.958,0,0,0-.35-2.03q-.35-.77-1.61-.77h-.56v-.56h2.52a3.728,3.728,0,0,1,1.526.252,1.481,1.481,0,0,1,.77.98A7.671,7.671,0,0,1,71.9-9.8V0Zm1.064-14.84a1.418,1.418,0,0,1-1.106-.532,1.859,1.859,0,0,1-.462-1.26,1.22,1.22,0,0,1,.35-.924,1.3,1.3,0,0,1,.938-.336,1.418,1.418,0,0,1,1.106.532,1.859,1.859,0,0,1,.462,1.26,1.22,1.22,0,0,1-.35.924A1.3,1.3,0,0,1,70.448-14.84Z" transform="translate(-1.26 18.48)"/>
</svg>
